<?xml version="1.0" standalone="no"?>
<svg xmlns:xlink="http://www.w3.org/1999/xlink" id="mermaid-svg" width="undefined" xmlns="http://www.w3.org/2000/svg" height="undefined" style="max-width: 1578.3499755859375px;" viewBox="0 0 1578.3499755859375 1012.5"><style>#mermaid-svg{font-family:"trebuchet ms",verdana,arial,sans-serif;font-size:16px;fill:#333;}#mermaid-svg .error-icon{fill:#552222;}#mermaid-svg .error-text{fill:#552222;stroke:#552222;}#mermaid-svg .edge-thickness-normal{stroke-width:2px;}#mermaid-svg .edge-thickness-thick{stroke-width:3.5px;}#mermaid-svg .edge-pattern-solid{stroke-dasharray:0;}#mermaid-svg .edge-pattern-dashed{stroke-dasharray:3;}#mermaid-svg .edge-pattern-dotted{stroke-dasharray:2;}#mermaid-svg .marker{fill:#333333;}#mermaid-svg .marker.cross{stroke:#333333;}#mermaid-svg svg{font-family:"trebuchet ms",verdana,arial,sans-serif;font-size:16px;}#mermaid-svg .entityBox{fill:#ECECFF;stroke:#9370DB;}#mermaid-svg .attributeBoxOdd{fill:#ffffff;stroke:#9370DB;}#mermaid-svg .attributeBoxEven{fill:#f2f2f2;stroke:#9370DB;}#mermaid-svg .relationshipLabelBox{fill:hsl(80,100%,96.2745098039%);opacity:0.7;background-color:hsl(80,100%,96.2745098039%);}#mermaid-svg .relationshipLabelBox rect{opacity:0.5;}#mermaid-svg .relationshipLine{stroke:#333333;}#mermaid-svg:root{--mermaid-font-family:"trebuchet ms",verdana,arial,sans-serif;}#mermaid-svg er{fill:apa;}</style><g/><defs><marker id="ONLY_ONE_START" refX="0" refY="9" markerWidth="18" markerHeight="18" orient="auto"><path stroke="gray" fill="none" d="M9,0 L9,18 M15,0 L15,18"/></marker></defs><defs><marker id="ONLY_ONE_END" refX="18" refY="9" markerWidth="18" markerHeight="18" orient="auto"><path stroke="gray" fill="none" d="M3,0 L3,18 M9,0 L9,18"/></marker></defs><defs><marker id="ZERO_OR_ONE_START" refX="0" refY="9" markerWidth="30" markerHeight="18" orient="auto"><circle stroke="gray" fill="white" cx="21" cy="9" r="6"/><path stroke="gray" fill="none" d="M9,0 L9,18"/></marker></defs><defs><marker id="ZERO_OR_ONE_END" refX="30" refY="9" markerWidth="30" markerHeight="18" orient="auto"><circle stroke="gray" fill="white" cx="9" cy="9" r="6"/><path stroke="gray" fill="none" d="M21,0 L21,18"/></marker></defs><defs><marker id="ONE_OR_MORE_START" refX="18" refY="18" markerWidth="45" markerHeight="36" orient="auto"><path stroke="gray" fill="none" d="M0,18 Q 18,0 36,18 Q 18,36 0,18 M42,9 L42,27"/></marker></defs><defs><marker id="ONE_OR_MORE_END" refX="27" refY="18" markerWidth="45" markerHeight="36" orient="auto"><path stroke="gray" fill="none" d="M3,9 L3,27 M9,18 Q27,0 45,18 Q27,36 9,18"/></marker></defs><defs><marker id="ZERO_OR_MORE_START" refX="18" refY="18" markerWidth="57" markerHeight="36" orient="auto"><circle stroke="gray" fill="white" cx="48" cy="18" r="6"/><path stroke="gray" fill="none" d="M0,18 Q18,0 36,18 Q18,36 0,18"/></marker></defs><defs><marker id="ZERO_OR_MORE_END" refX="39" refY="18" markerWidth="57" markerHeight="36" orient="auto"><circle stroke="gray" fill="white" cx="9" cy="18" r="6"/><path stroke="gray" fill="none" d="M21,18 Q39,0 57,18 Q39,36 21,18"/></marker></defs><path class="er relationshipLine" d="M516.6624984741211,348.02305211552465L500.5520820617676,364.01921009627057C484.44166564941406,380.0153680770165,452.22083282470703,412.0076840385082,431.19399556672914,436.3371753525874C410.1671583087512,460.6666666666667,400.33431661750245,477.3333333333333,395.41789577187814,485.6666666666667L390.5014749262537,494" stroke="gray" fill="none" marker-end="url(#ZERO_OR_ONE_END)" marker-start="url(#ZERO_OR_MORE_START)"/><path class="er relationshipLine" d="M70,78.25L70,88.45833333333333C70,98.66666666666667,70,119.08333333333333,144.44374974568686,151.8094819783042C218.8874994913737,184.5356306232751,367.7749989827474,229.5712612465502,442.21874872843426,252.0890765581877L516.6624984741211,274.6068918698253" stroke="gray" fill="none" marker-end="url(#ONLY_ONE_END)" marker-start="url(#ZERO_OR_MORE_START)"/><path class="er relationshipLine" d="M498.3375015258789,78.25L498.3375015258789,88.45833333333333C498.3375015258789,98.66666666666667,498.3375015258789,119.08333333333333,502.4425918378658,137.625C506.5476821498526,156.16666666666666,514.7578627738263,172.83333333333334,518.8629530858133,181.16666666666666L522.9680433978001,189.5" stroke="gray" fill="none" marker-end="url(#ONLY_ONE_END)" marker-start="url(#ZERO_OR_MORE_START)"/><path class="er relationshipLine" d="M256.13569321533924,78.25L250.11307767944936,88.45833333333333C244.0904621435595,98.66666666666667,232.04523107177974,119.08333333333333,275.4663652815767,150.59654052316978C318.8874994913737,182.10974771300621,417.7749989827474,224.7194954260124,467.21874872843426,246.02436928251552L516.6624984741211,267.3292431390186" stroke="gray" fill="none" marker-end="url(#ONLY_ONE_END)" marker-start="url(#ZERO_OR_MORE_START)"/><path class="er relationshipLine" d="M283.86430678466076,78.25L289.88692232055064,88.45833333333333C295.9095378564405,98.66666666666667,307.9547689282203,119.08333333333333,313.9773844641101,154.66666666666666C320,190.25,320,241,320,291.75C320,342.5,320,393.25,324.9164208456244,426.9583333333333C329.8328416912488,460.6666666666667,339.66568338249755,477.3333333333333,344.58210422812186,485.6666666666667L349.4985250737463,494" stroke="gray" fill="none" marker-end="url(#ZERO_OR_ONE_END)" marker-start="url(#ZERO_OR_MORE_START)"/><path class="er relationshipLine" d="M349.4985250737463,563.5L344.582104228122,571.8333333333334C339.66568338249755,580.1666666666666,329.8328416912488,596.8333333333334,324.9164208456244,623.0416666666666C320,649.25,320,685,320,720.75C320,756.5,320,792.25,391.94583384195965,825.9255335990814C463.89166768391925,859.6010671981627,607.7833353678385,891.2021343963253,679.7291692097982,907.0026679954067L751.6750030517578,922.803201594488" stroke="gray" fill="none" marker-end="url(#ZERO_OR_ONE_END)" marker-start="url(#ZERO_OR_MORE_START)"/><path class="er relationshipLine" d="M390.5014749262537,563.5L395.417895771878,571.8333333333334C400.33431661750245,580.1666666666666,410.1671583087512,596.8333333333334,452.5835791543756,619.4450902272443C495,642.0568471211553,570,670.6136942423105,607.5,684.8921178028883L645,699.1705413634659" stroke="gray" fill="none" marker-end="url(#ZERO_OR_ONE_END)" marker-start="url(#ZERO_OR_MORE_START)"/><path class="er relationshipLine" d="M751.6750030517578,912.1689522064725L717.2291692097982,898.1407935053936C682.7833353678385,884.112634804315,613.8916676839193,856.0563174021576,579.4458338419596,824.1531587010787C545,792.25,545,756.5,545,720.75C545,685,545,649.25,545,617.25C545,585.25,545,557,545,528.75C545,500.5,545,472.25,546.5510400397307,449.7916666666667C548.1020800794613,427.3333333333333,551.2041601589226,410.6666666666667,552.7552001986533,402.3333333333333L554.3062402383839,394" stroke="gray" fill="none" marker-end="url(#ONLY_ONE_END)" marker-start="url(#ZERO_OR_MORE_START)"/><path class="er relationshipLine" d="M701.6750030517578,663.5L701.6750030517578,655.1666666666666C701.6750030517578,646.8333333333334,701.6750030517578,630.1666666666666,701.6750030517578,607.7083333333334C701.6750030517578,585.25,701.6750030517578,557,701.6750030517578,528.75C701.6750030517578,500.5,701.6750030517578,472.25,689.7312533060709,443.9558298263533C677.7875035603842,415.66165965270653,653.9000040690104,387.3233193054131,641.9562543233236,373.1541491317664L630.0125045776367,358.9849789581197" stroke="gray" fill="none" marker-end="url(#ONLY_ONE_END)" marker-start="url(#ZERO_OR_MORE_START)"/><path class="er relationshipLine" d="M701.6750030517578,778L701.6750030517578,786.3333333333334C701.6750030517578,794.6666666666666,701.6750030517578,811.3333333333334,710.0083363850912,828.0449181260677C718.3416697184244,844.7565029188021,735.0083363850912,861.513005837604,743.3416697184244,869.8912572970052L751.6750030517578,878.2695087564063" stroke="gray" fill="none" marker-end="url(#ONLY_ONE_END)" marker-start="url(#ZERO_OR_MORE_START)"/><path class="er relationshipLine" d="M843.2437014734498,78.25L824.3718353241476,88.45833333333333C805.4999691748454,98.66666666666667,767.756236876241,119.08333333333333,732.2177040602722,145.4876133752921C696.6791712443033,171.8918934172509,663.3458379109701,204.28378683450183,646.6791712443033,220.47973354312728L630.0125045776367,236.67568025175274" stroke="gray" fill="none" marker-end="url(#ONLY_ONE_END)" marker-start="url(#ZERO_OR_MORE_START)"/><path class="er relationshipLine" d="M878.829911336083,78.25L875.4165937973218,88.45833333333333C872.0032762585606,98.66666666666667,865.1766411810381,119.08333333333333,861.7633236422768,154.66666666666666C858.3500061035156,190.25,858.3500061035156,241,858.3500061035156,291.75C858.3500061035156,342.5,858.3500061035156,393.25,858.3500061035156,432.75C858.3500061035156,472.25,858.3500061035156,500.5,858.3500061035156,528.75C858.3500061035156,557,858.3500061035156,585.25,858.3500061035156,617.25C858.3500061035156,649.25,858.3500061035156,685,858.3500061035156,720.75C858.3500061035156,756.5,858.3500061035156,792.25,854.4650022185118,818.4583333333334C850.5799983335079,844.6666666666666,842.8099905635,861.3333333333334,838.9249866784962,869.6666666666666L835.0399827934923,878" stroke="gray" fill="none" marker-end="url(#ONLY_ONE_END)" marker-start="url(#ZERO_OR_MORE_START)"/><path class="er relationshipLine" d="M906.5585249054045,78.25L915.190438438423,88.45833333333333C923.8223519714415,98.66666666666667,941.0861790374787,119.08333333333333,949.7180925704971,154.66666666666666C958.3500061035156,190.25,958.3500061035156,241,958.3500061035156,291.75C958.3500061035156,342.5,958.3500061035156,393.25,958.3500061035156,432.75C958.3500061035156,472.25,958.3500061035156,500.5,958.3500061035156,528.75C958.3500061035156,557,958.3500061035156,585.25,925.0166727701823,613.3031190513091C891.683339436849,641.3562381026181,825.0166727701823,669.2124762052363,791.683339436849,683.1405952565452L758.3500061035156,697.0687143078544" stroke="gray" fill="none" marker-end="url(#ZERO_OR_ONE_END)" marker-start="url(#ZERO_OR_MORE_START)"/><path class="er relationshipLine" d="M1094.4856993188548,78.25L1088.463083782965,88.45833333333333C1082.4404682470752,98.66666666666667,1070.3952371752955,119.08333333333333,1064.3726216394055,154.66666666666666C1058.3500061035156,190.25,1058.3500061035156,241,1058.3500061035156,291.75C1058.3500061035156,342.5,1058.3500061035156,393.25,1058.3500061035156,432.75C1058.3500061035156,472.25,1058.3500061035156,500.5,1058.3500061035156,528.75C1058.3500061035156,557,1058.3500061035156,585.25,1058.3500061035156,617.25C1058.3500061035156,649.25,1058.3500061035156,685,1058.3500061035156,720.75C1058.3500061035156,756.5,1058.3500061035156,792.25,1026.1291732788086,823.9477372817993C993.9083404541016,855.6454745635987,929.4666748046875,883.2909491271972,897.2458419799805,897.1136864089966L865.0250091552734,910.9364236907959" stroke="gray" fill="none" marker-end="url(#ONLY_ONE_END)" marker-start="url(#ZERO_OR_MORE_START)"/><path class="er relationshipLine" d="M1122.2143128881764,78.25L1128.2369284240663,88.45833333333333C1134.259543959956,98.66666666666667,1146.3047750317357,119.08333333333333,1064.2711403133126,152.20838040580009C982.2375055948893,185.33342747826683,806.1250050862631,231.16685495653368,718.0687548319498,254.08356869566708L630.0125045776367,277.0002824348005" stroke="gray" fill="none" marker-end="url(#ONLY_ONE_END)" marker-start="url(#ZERO_OR_MORE_START)"/><path class="er relationshipLine" d="M1294.4856993188548,78.25L1288.463083782965,88.45833333333333C1282.4404682470752,98.66666666666667,1270.3952371752955,119.08333333333333,1159.6497047184257,152.56724776142337C1048.904172261556,186.0511621895134,839.4583384195963,232.60232437902678,734.7354214986166,255.8779054737835L630.0125045776367,279.1534865685402" stroke="gray" fill="none" marker-end="url(#ONLY_ONE_END)" marker-start="url(#ZERO_OR_MORE_START)"/><path class="er relationshipLine" d="M1322.2143128881764,78.25L1328.2369284240663,88.45833333333333C1334.259543959956,98.66666666666667,1346.3047750317357,119.08333333333333,1352.3273905676258,154.66666666666666C1358.3500061035156,190.25,1358.3500061035156,241,1358.3500061035156,291.75C1358.3500061035156,342.5,1358.3500061035156,393.25,1358.3500061035156,432.75C1358.3500061035156,472.25,1358.3500061035156,500.5,1358.3500061035156,528.75C1358.3500061035156,557,1358.3500061035156,585.25,1358.3500061035156,617.25C1358.3500061035156,649.25,1358.3500061035156,685,1358.3500061035156,720.75C1358.3500061035156,756.5,1358.3500061035156,792.25,1276.1291732788086,826.1580624008179C1193.9083404541016,860.0661248016357,1029.4666748046875,892.1322496032714,947.2458419799805,908.1653120040893L865.0250091552734,924.1983744049072" stroke="gray" fill="none" marker-end="url(#ONLY_ONE_END)" marker-start="url(#ZERO_OR_MORE_START)"/><g id="User" transform="translate(516.6624984741211,189.5 )"><rect class="er entityBox" fill="honeydew" fill-opacity="100%" stroke="gray" x="0" y="0" width="113.35000228881836" height="204.5"/><text class="er entityLabel" id="entity-User" x="0" y="0" dominant-baseline="middle" text-anchor="middle" style="font-family: &quot;trebuchet ms&quot;, verdana, arial, sans-serif;; font-size: 12px" transform="translate(56.67500114440918,12.25)">User</text><rect class="er attributeBoxOdd" fill="honeydew" fill-opacity="100%" stroke="gray" x="0" y="24.5" width="54.68333435058594" height="22.5"/><text class="er entityLabel" id="entity-User-attr-1-type" x="0" y="0" dominant-baseline="middle" text-anchor="left" style="font-family: &quot;trebuchet ms&quot;, verdana, arial, sans-serif;; font-size: 10.2px" transform="translate(5,35.75)">String</text><rect class="er attributeBoxOdd" fill="honeydew" fill-opacity="100%" stroke="gray" x="054.68333435058594" y="24.5" width="58.66666793823242" height="22.5"/><text class="er entityLabel" id="entity-User-attr-1-name" x="0" y="0" dominant-baseline="middle" text-anchor="left" style="font-family: &quot;trebuchet ms&quot;, verdana, arial, sans-serif;; font-size: 10.2px" transform="translate(59.68333435058594,35.75)">id</text><rect class="er attributeBoxEven" fill="honeydew" fill-opacity="100%" stroke="gray" x="0" y="47" width="54.68333435058594" height="22.5"/><text class="er entityLabel" id="entity-User-attr-2-type" x="0" y="0" dominant-baseline="middle" text-anchor="left" style="font-family: &quot;trebuchet ms&quot;, verdana, arial, sans-serif;; font-size: 10.2px" transform="translate(5,58.25)">String</text><rect class="er attributeBoxEven" fill="honeydew" fill-opacity="100%" stroke="gray" x="054.68333435058594" y="47" width="58.66666793823242" height="22.5"/><text class="er entityLabel" id="entity-User-attr-2-name" x="0" y="0" dominant-baseline="middle" text-anchor="left" style="font-family: &quot;trebuchet ms&quot;, verdana, arial, sans-serif;; font-size: 10.2px" transform="translate(59.68333435058594,58.25)">username</text><rect class="er attributeBoxOdd" fill="honeydew" fill-opacity="100%" stroke="gray" x="0" y="69.5" width="54.68333435058594" height="22.5"/><text class="er entityLabel" id="entity-User-attr-3-type" x="0" y="0" dominant-baseline="middle" text-anchor="left" style="font-family: &quot;trebuchet ms&quot;, verdana, arial, sans-serif;; font-size: 10.2px" transform="translate(5,80.75)">String</text><rect class="er attributeBoxOdd" fill="honeydew" fill-opacity="100%" stroke="gray" x="054.68333435058594" y="69.5" width="58.66666793823242" height="22.5"/><text class="er entityLabel" id="entity-User-attr-3-name" x="0" y="0" dominant-baseline="middle" text-anchor="left" style="font-family: &quot;trebuchet ms&quot;, verdana, arial, sans-serif;; font-size: 10.2px" transform="translate(59.68333435058594,80.75)">email</text><rect class="er attributeBoxEven" fill="honeydew" fill-opacity="100%" stroke="gray" x="0" y="92" width="54.68333435058594" height="22.5"/><text class="er entityLabel" id="entity-User-attr-4-type" x="0" y="0" dominant-baseline="middle" text-anchor="left" style="font-family: &quot;trebuchet ms&quot;, verdana, arial, sans-serif;; font-size: 10.2px" transform="translate(5,103.25)">String</text><rect class="er attributeBoxEven" fill="honeydew" fill-opacity="100%" stroke="gray" x="054.68333435058594" y="92" width="58.66666793823242" height="22.5"/><text class="er entityLabel" id="entity-User-attr-4-name" x="0" y="0" dominant-baseline="middle" text-anchor="left" style="font-family: &quot;trebuchet ms&quot;, verdana, arial, sans-serif;; font-size: 10.2px" transform="translate(59.68333435058594,103.25)">password</text><rect class="er attributeBoxOdd" fill="honeydew" fill-opacity="100%" stroke="gray" x="0" y="114.5" width="54.68333435058594" height="22.5"/><text class="er entityLabel" id="entity-User-attr-5-type" x="0" y="0" dominant-baseline="middle" text-anchor="left" style="font-family: &quot;trebuchet ms&quot;, verdana, arial, sans-serif;; font-size: 10.2px" transform="translate(5,125.75)">String</text><rect class="er attributeBoxOdd" fill="honeydew" fill-opacity="100%" stroke="gray" x="054.68333435058594" y="114.5" width="58.66666793823242" height="22.5"/><text class="er entityLabel" id="entity-User-attr-5-name" x="0" y="0" dominant-baseline="middle" text-anchor="left" style="font-family: &quot;trebuchet ms&quot;, verdana, arial, sans-serif;; font-size: 10.2px" transform="translate(59.68333435058594,125.75)">name</text><rect class="er attributeBoxEven" fill="honeydew" fill-opacity="100%" stroke="gray" x="0" y="137" width="54.68333435058594" height="22.5"/><text class="er entityLabel" id="entity-User-attr-6-type" x="0" y="0" dominant-baseline="middle" text-anchor="left" style="font-family: &quot;trebuchet ms&quot;, verdana, arial, sans-serif;; font-size: 10.2px" transform="translate(5,148.25)">String</text><rect class="er attributeBoxEven" fill="honeydew" fill-opacity="100%" stroke="gray" x="054.68333435058594" y="137" width="58.66666793823242" height="22.5"/><text class="er entityLabel" id="entity-User-attr-6-name" x="0" y="0" dominant-baseline="middle" text-anchor="left" style="font-family: &quot;trebuchet ms&quot;, verdana, arial, sans-serif;; font-size: 10.2px" transform="translate(59.68333435058594,148.25)">bio</text><rect class="er attributeBoxOdd" fill="honeydew" fill-opacity="100%" stroke="gray" x="0" y="159.5" width="54.68333435058594" height="22.5"/><text class="er entityLabel" id="entity-User-attr-7-type" x="0" y="0" dominant-baseline="middle" text-anchor="left" style="font-family: &quot;trebuchet ms&quot;, verdana, arial, sans-serif;; font-size: 10.2px" transform="translate(5,170.75)">DateTime</text><rect class="er attributeBoxOdd" fill="honeydew" fill-opacity="100%" stroke="gray" x="054.68333435058594" y="159.5" width="58.66666793823242" height="22.5"/><text class="er entityLabel" id="entity-User-attr-7-name" x="0" y="0" dominant-baseline="middle" text-anchor="left" style="font-family: &quot;trebuchet ms&quot;, verdana, arial, sans-serif;; font-size: 10.2px" transform="translate(59.68333435058594,170.75)">createdAt</text><rect class="er attributeBoxEven" fill="honeydew" fill-opacity="100%" stroke="gray" x="0" y="182" width="54.68333435058594" height="22.5"/><text class="er entityLabel" id="entity-User-attr-8-type" x="0" y="0" dominant-baseline="middle" text-anchor="left" style="font-family: &quot;trebuchet ms&quot;, verdana, arial, sans-serif;; font-size: 10.2px" transform="translate(5,193.25)">DateTime</text><rect class="er attributeBoxEven" fill="honeydew" fill-opacity="100%" stroke="gray" x="054.68333435058594" y="182" width="58.66666793823242" height="22.5"/><text class="er entityLabel" id="entity-User-attr-8-name" x="0" y="0" dominant-baseline="middle" text-anchor="left" style="font-family: &quot;trebuchet ms&quot;, verdana, arial, sans-serif;; font-size: 10.2px" transform="translate(59.68333435058594,193.25)">updatedAt</text></g><g id="Followers" transform="translate(20,31.25 )"><rect class="er entityBox" fill="honeydew" fill-opacity="100%" stroke="gray" x="0" y="0" width="100" height="47"/><text class="er entityLabel" id="entity-Followers" x="0" y="0" dominant-baseline="middle" text-anchor="middle" style="font-family: &quot;trebuchet ms&quot;, verdana, arial, sans-serif;; font-size: 12px" transform="translate(50,12.25)">Followers</text><rect class="er attributeBoxOdd" fill="honeydew" fill-opacity="100%" stroke="gray" x="0" y="24.5" width="58.958333015441895" height="22.5"/><text class="er entityLabel" id="entity-Followers-attr-1-type" x="0" y="0" dominant-baseline="middle" text-anchor="left" style="font-family: &quot;trebuchet ms&quot;, verdana, arial, sans-serif;; font-size: 10.2px" transform="translate(5,35.75)">String</text><rect class="er attributeBoxOdd" fill="honeydew" fill-opacity="100%" stroke="gray" x="058.958333015441895" y="24.5" width="41.041666984558105" height="22.5"/><text class="er entityLabel" id="entity-Followers-attr-1-name" x="0" y="0" dominant-baseline="middle" text-anchor="left" style="font-family: &quot;trebuchet ms&quot;, verdana, arial, sans-serif;; font-size: 10.2px" transform="translate(63.958333015441895,35.75)">id</text></g><g id="Following" transform="translate(448.3375015258789,31.25 )"><rect class="er entityBox" fill="honeydew" fill-opacity="100%" stroke="gray" x="0" y="0" width="100" height="47"/><text class="er entityLabel" id="entity-Following" x="0" y="0" dominant-baseline="middle" text-anchor="middle" style="font-family: &quot;trebuchet ms&quot;, verdana, arial, sans-serif;; font-size: 12px" transform="translate(50,12.25)">Following</text><rect class="er attributeBoxOdd" fill="honeydew" fill-opacity="100%" stroke="gray" x="0" y="24.5" width="58.958333015441895" height="22.5"/><text class="er entityLabel" id="entity-Following-attr-1-type" x="0" y="0" dominant-baseline="middle" text-anchor="left" style="font-family: &quot;trebuchet ms&quot;, verdana, arial, sans-serif;; font-size: 10.2px" transform="translate(5,35.75)">String</text><rect class="er attributeBoxOdd" fill="honeydew" fill-opacity="100%" stroke="gray" x="058.958333015441895" y="24.5" width="41.041666984558105" height="22.5"/><text class="er entityLabel" id="entity-Following-attr-1-name" x="0" y="0" dominant-baseline="middle" text-anchor="left" style="font-family: &quot;trebuchet ms&quot;, verdana, arial, sans-serif;; font-size: 10.2px" transform="translate(63.958333015441895,35.75)">id</text></g><g id="Profile" transform="translate(220,31.25 )"><rect class="er entityBox" fill="honeydew" fill-opacity="100%" stroke="gray" x="0" y="0" width="100" height="47"/><text class="er entityLabel" id="entity-Profile" x="0" y="0" dominant-baseline="middle" text-anchor="middle" style="font-family: &quot;trebuchet ms&quot;, verdana, arial, sans-serif;; font-size: 12px" transform="translate(50,12.25)">Profile</text><rect class="er attributeBoxOdd" fill="honeydew" fill-opacity="100%" stroke="gray" x="0" y="24.5" width="58.958333015441895" height="22.5"/><text class="er entityLabel" id="entity-Profile-attr-1-type" x="0" y="0" dominant-baseline="middle" text-anchor="left" style="font-family: &quot;trebuchet ms&quot;, verdana, arial, sans-serif;; font-size: 10.2px" transform="translate(5,35.75)">String</text><rect class="er attributeBoxOdd" fill="honeydew" fill-opacity="100%" stroke="gray" x="058.958333015441895" y="24.5" width="41.041666984558105" height="22.5"/><text class="er entityLabel" id="entity-Profile-attr-1-name" x="0" y="0" dominant-baseline="middle" text-anchor="left" style="font-family: &quot;trebuchet ms&quot;, verdana, arial, sans-serif;; font-size: 10.2px" transform="translate(63.958333015441895,35.75)">id</text></g><g id="Media" transform="translate(320,494 )"><rect class="er entityBox" fill="honeydew" fill-opacity="100%" stroke="gray" x="0" y="0" width="100" height="69.5"/><text class="er entityLabel" id="entity-Media" x="0" y="0" dominant-baseline="middle" text-anchor="middle" style="font-family: &quot;trebuchet ms&quot;, verdana, arial, sans-serif;; font-size: 12px" transform="translate(50,12.25)">Media</text><rect class="er attributeBoxOdd" fill="honeydew" fill-opacity="100%" stroke="gray" x="0" y="24.5" width="56.991666316986084" height="22.5"/><text class="er entityLabel" id="entity-Media-attr-1-type" x="0" y="0" dominant-baseline="middle" text-anchor="left" style="font-family: &quot;trebuchet ms&quot;, verdana, arial, sans-serif;; font-size: 10.2px" transform="translate(5,35.75)">String</text><rect class="er attributeBoxOdd" fill="honeydew" fill-opacity="100%" stroke="gray" x="056.991666316986084" y="24.5" width="43.008333683013916" height="22.5"/><text class="er entityLabel" id="entity-Media-attr-1-name" x="0" y="0" dominant-baseline="middle" text-anchor="left" style="font-family: &quot;trebuchet ms&quot;, verdana, arial, sans-serif;; font-size: 10.2px" transform="translate(61.991666316986084,35.75)">id</text><rect class="er attributeBoxEven" fill="honeydew" fill-opacity="100%" stroke="gray" x="0" y="47" width="56.991666316986084" height="22.5"/><text class="er entityLabel" id="entity-Media-attr-2-type" x="0" y="0" dominant-baseline="middle" text-anchor="left" style="font-family: &quot;trebuchet ms&quot;, verdana, arial, sans-serif;; font-size: 10.2px" transform="translate(5,58.25)">String</text><rect class="er attributeBoxEven" fill="honeydew" fill-opacity="100%" stroke="gray" x="056.991666316986084" y="47" width="43.008333683013916" height="22.5"/><text class="er entityLabel" id="entity-Media-attr-2-name" x="0" y="0" dominant-baseline="middle" text-anchor="left" style="font-family: &quot;trebuchet ms&quot;, verdana, arial, sans-serif;; font-size: 10.2px" transform="translate(61.991666316986084,58.25)">url</text></g><g id="Tweet" transform="translate(751.6750030517578,878 )"><rect class="er entityBox" fill="honeydew" fill-opacity="100%" stroke="gray" x="0" y="0" width="113.35000228881836" height="114.5"/><text class="er entityLabel" id="entity-Tweet" x="0" y="0" dominant-baseline="middle" text-anchor="middle" style="font-family: &quot;trebuchet ms&quot;, verdana, arial, sans-serif;; font-size: 12px" transform="translate(56.67500114440918,12.25)">Tweet</text><rect class="er attributeBoxOdd" fill="honeydew" fill-opacity="100%" stroke="gray" x="0" y="24.5" width="54.68333435058594" height="22.5"/><text class="er entityLabel" id="entity-Tweet-attr-1-type" x="0" y="0" dominant-baseline="middle" text-anchor="left" style="font-family: &quot;trebuchet ms&quot;, verdana, arial, sans-serif;; font-size: 10.2px" transform="translate(5,35.75)">String</text><rect class="er attributeBoxOdd" fill="honeydew" fill-opacity="100%" stroke="gray" x="054.68333435058594" y="24.5" width="58.66666793823242" height="22.5"/><text class="er entityLabel" id="entity-Tweet-attr-1-name" x="0" y="0" dominant-baseline="middle" text-anchor="left" style="font-family: &quot;trebuchet ms&quot;, verdana, arial, sans-serif;; font-size: 10.2px" transform="translate(59.68333435058594,35.75)">id</text><rect class="er attributeBoxEven" fill="honeydew" fill-opacity="100%" stroke="gray" x="0" y="47" width="54.68333435058594" height="22.5"/><text class="er entityLabel" id="entity-Tweet-attr-2-type" x="0" y="0" dominant-baseline="middle" text-anchor="left" style="font-family: &quot;trebuchet ms&quot;, verdana, arial, sans-serif;; font-size: 10.2px" transform="translate(5,58.25)">String</text><rect class="er attributeBoxEven" fill="honeydew" fill-opacity="100%" stroke="gray" x="054.68333435058594" y="47" width="58.66666793823242" height="22.5"/><text class="er entityLabel" id="entity-Tweet-attr-2-name" x="0" y="0" dominant-baseline="middle" text-anchor="left" style="font-family: &quot;trebuchet ms&quot;, verdana, arial, sans-serif;; font-size: 10.2px" transform="translate(59.68333435058594,58.25)">content</text><rect class="er attributeBoxOdd" fill="honeydew" fill-opacity="100%" stroke="gray" x="0" y="69.5" width="54.68333435058594" height="22.5"/><text class="er entityLabel" id="entity-Tweet-attr-3-type" x="0" y="0" dominant-baseline="middle" text-anchor="left" style="font-family: &quot;trebuchet ms&quot;, verdana, arial, sans-serif;; font-size: 10.2px" transform="translate(5,80.75)">DateTime</text><rect class="er attributeBoxOdd" fill="honeydew" fill-opacity="100%" stroke="gray" x="054.68333435058594" y="69.5" width="58.66666793823242" height="22.5"/><text class="er entityLabel" id="entity-Tweet-attr-3-name" x="0" y="0" dominant-baseline="middle" text-anchor="left" style="font-family: &quot;trebuchet ms&quot;, verdana, arial, sans-serif;; font-size: 10.2px" transform="translate(59.68333435058594,80.75)">createdAt</text><rect class="er attributeBoxEven" fill="honeydew" fill-opacity="100%" stroke="gray" x="0" y="92" width="54.68333435058594" height="22.5"/><text class="er entityLabel" id="entity-Tweet-attr-4-type" x="0" y="0" dominant-baseline="middle" text-anchor="left" style="font-family: &quot;trebuchet ms&quot;, verdana, arial, sans-serif;; font-size: 10.2px" transform="translate(5,103.25)">DateTime</text><rect class="er attributeBoxEven" fill="honeydew" fill-opacity="100%" stroke="gray" x="054.68333435058594" y="92" width="58.66666793823242" height="22.5"/><text class="er entityLabel" id="entity-Tweet-attr-4-name" x="0" y="0" dominant-baseline="middle" text-anchor="left" style="font-family: &quot;trebuchet ms&quot;, verdana, arial, sans-serif;; font-size: 10.2px" transform="translate(59.68333435058594,103.25)">updatedAt</text></g><g id="Comment" transform="translate(645,663.5 )"><rect class="er entityBox" fill="honeydew" fill-opacity="100%" stroke="gray" x="0" y="0" width="113.35000228881836" height="114.5"/><text class="er entityLabel" id="entity-Comment" x="0" y="0" dominant-baseline="middle" text-anchor="middle" style="font-family: &quot;trebuchet ms&quot;, verdana, arial, sans-serif;; font-size: 12px" transform="translate(56.67500114440918,12.25)">Comment</text><rect class="er attributeBoxOdd" fill="honeydew" fill-opacity="100%" stroke="gray" x="0" y="24.5" width="54.68333435058594" height="22.5"/><text class="er entityLabel" id="entity-Comment-attr-1-type" x="0" y="0" dominant-baseline="middle" text-anchor="left" style="font-family: &quot;trebuchet ms&quot;, verdana, arial, sans-serif;; font-size: 10.2px" transform="translate(5,35.75)">String</text><rect class="er attributeBoxOdd" fill="honeydew" fill-opacity="100%" stroke="gray" x="054.68333435058594" y="24.5" width="58.66666793823242" height="22.5"/><text class="er entityLabel" id="entity-Comment-attr-1-name" x="0" y="0" dominant-baseline="middle" text-anchor="left" style="font-family: &quot;trebuchet ms&quot;, verdana, arial, sans-serif;; font-size: 10.2px" transform="translate(59.68333435058594,35.75)">id</text><rect class="er attributeBoxEven" fill="honeydew" fill-opacity="100%" stroke="gray" x="0" y="47" width="54.68333435058594" height="22.5"/><text class="er entityLabel" id="entity-Comment-attr-2-type" x="0" y="0" dominant-baseline="middle" text-anchor="left" style="font-family: &quot;trebuchet ms&quot;, verdana, arial, sans-serif;; font-size: 10.2px" transform="translate(5,58.25)">String</text><rect class="er attributeBoxEven" fill="honeydew" fill-opacity="100%" stroke="gray" x="054.68333435058594" y="47" width="58.66666793823242" height="22.5"/><text class="er entityLabel" id="entity-Comment-attr-2-name" x="0" y="0" dominant-baseline="middle" text-anchor="left" style="font-family: &quot;trebuchet ms&quot;, verdana, arial, sans-serif;; font-size: 10.2px" transform="translate(59.68333435058594,58.25)">content</text><rect class="er attributeBoxOdd" fill="honeydew" fill-opacity="100%" stroke="gray" x="0" y="69.5" width="54.68333435058594" height="22.5"/><text class="er entityLabel" id="entity-Comment-attr-3-type" x="0" y="0" dominant-baseline="middle" text-anchor="left" style="font-family: &quot;trebuchet ms&quot;, verdana, arial, sans-serif;; font-size: 10.2px" transform="translate(5,80.75)">DateTime</text><rect class="er attributeBoxOdd" fill="honeydew" fill-opacity="100%" stroke="gray" x="054.68333435058594" y="69.5" width="58.66666793823242" height="22.5"/><text class="er entityLabel" id="entity-Comment-attr-3-name" x="0" y="0" dominant-baseline="middle" text-anchor="left" style="font-family: &quot;trebuchet ms&quot;, verdana, arial, sans-serif;; font-size: 10.2px" transform="translate(59.68333435058594,80.75)">createdAt</text><rect class="er attributeBoxEven" fill="honeydew" fill-opacity="100%" stroke="gray" x="0" y="92" width="54.68333435058594" height="22.5"/><text class="er entityLabel" id="entity-Comment-attr-4-type" x="0" y="0" dominant-baseline="middle" text-anchor="left" style="font-family: &quot;trebuchet ms&quot;, verdana, arial, sans-serif;; font-size: 10.2px" transform="translate(5,103.25)">DateTime</text><rect class="er attributeBoxEven" fill="honeydew" fill-opacity="100%" stroke="gray" x="054.68333435058594" y="92" width="58.66666793823242" height="22.5"/><text class="er entityLabel" id="entity-Comment-attr-4-name" x="0" y="0" dominant-baseline="middle" text-anchor="left" style="font-family: &quot;trebuchet ms&quot;, verdana, arial, sans-serif;; font-size: 10.2px" transform="translate(59.68333435058594,103.25)">updatedAt</text></g><g id="Like" transform="translate(836.6875076293945,31.25 )"><rect class="er entityBox" fill="honeydew" fill-opacity="100%" stroke="gray" x="0" y="0" width="100" height="47"/><text class="er entityLabel" id="entity-Like" x="0" y="0" dominant-baseline="middle" text-anchor="middle" style="font-family: &quot;trebuchet ms&quot;, verdana, arial, sans-serif;; font-size: 12px" transform="translate(50,12.25)">Like</text><rect class="er attributeBoxOdd" fill="honeydew" fill-opacity="100%" stroke="gray" x="0" y="24.5" width="58.958333015441895" height="22.5"/><text class="er entityLabel" id="entity-Like-attr-1-type" x="0" y="0" dominant-baseline="middle" text-anchor="left" style="font-family: &quot;trebuchet ms&quot;, verdana, arial, sans-serif;; font-size: 10.2px" transform="translate(5,35.75)">String</text><rect class="er attributeBoxOdd" fill="honeydew" fill-opacity="100%" stroke="gray" x="058.958333015441895" y="24.5" width="41.041666984558105" height="22.5"/><text class="er entityLabel" id="entity-Like-attr-1-name" x="0" y="0" dominant-baseline="middle" text-anchor="left" style="font-family: &quot;trebuchet ms&quot;, verdana, arial, sans-serif;; font-size: 10.2px" transform="translate(63.958333015441895,35.75)">id</text></g><g id="Retweet" transform="translate(1058.3500061035156,31.25 )"><rect class="er entityBox" fill="honeydew" fill-opacity="100%" stroke="gray" x="0" y="0" width="100" height="47"/><text class="er entityLabel" id="entity-Retweet" x="0" y="0" dominant-baseline="middle" text-anchor="middle" style="font-family: &quot;trebuchet ms&quot;, verdana, arial, sans-serif;; font-size: 12px" transform="translate(50,12.25)">Retweet</text><rect class="er attributeBoxOdd" fill="honeydew" fill-opacity="100%" stroke="gray" x="0" y="24.5" width="58.958333015441895" height="22.5"/><text class="er entityLabel" id="entity-Retweet-attr-1-type" x="0" y="0" dominant-baseline="middle" text-anchor="left" style="font-family: &quot;trebuchet ms&quot;, verdana, arial, sans-serif;; font-size: 10.2px" transform="translate(5,35.75)">String</text><rect class="er attributeBoxOdd" fill="honeydew" fill-opacity="100%" stroke="gray" x="058.958333015441895" y="24.5" width="41.041666984558105" height="22.5"/><text class="er entityLabel" id="entity-Retweet-attr-1-name" x="0" y="0" dominant-baseline="middle" text-anchor="left" style="font-family: &quot;trebuchet ms&quot;, verdana, arial, sans-serif;; font-size: 10.2px" transform="translate(63.958333015441895,35.75)">id</text></g><g id="Bookmark" transform="translate(1258.3500061035156,31.25 )"><rect class="er entityBox" fill="honeydew" fill-opacity="100%" stroke="gray" x="0" y="0" width="100" height="47"/><text class="er entityLabel" id="entity-Bookmark" x="0" y="0" dominant-baseline="middle" text-anchor="middle" style="font-family: &quot;trebuchet ms&quot;, verdana, arial, sans-serif;; font-size: 12px" transform="translate(50,12.25)">Bookmark</text><rect class="er attributeBoxOdd" fill="honeydew" fill-opacity="100%" stroke="gray" x="0" y="24.5" width="58.958333015441895" height="22.5"/><text class="er entityLabel" id="entity-Bookmark-attr-1-type" x="0" y="0" dominant-baseline="middle" text-anchor="left" style="font-family: &quot;trebuchet ms&quot;, verdana, arial, sans-serif;; font-size: 10.2px" transform="translate(5,35.75)">String</text><rect class="er attributeBoxOdd" fill="honeydew" fill-opacity="100%" stroke="gray" x="058.958333015441895" y="24.5" width="41.041666984558105" height="22.5"/><text class="er entityLabel" id="entity-Bookmark-attr-1-name" x="0" y="0" dominant-baseline="middle" text-anchor="left" style="font-family: &quot;trebuchet ms&quot;, verdana, arial, sans-serif;; font-size: 10.2px" transform="translate(63.958333015441895,35.75)">id</text></g><g id="Hashtag" transform="translate(1458.3500061035156,20 )"><rect class="er entityBox" fill="honeydew" fill-opacity="100%" stroke="gray" x="0" y="0" width="100" height="69.5"/><text class="er entityLabel" id="entity-Hashtag" x="0" y="0" dominant-baseline="middle" text-anchor="middle" style="font-family: &quot;trebuchet ms&quot;, verdana, arial, sans-serif;; font-size: 12px" transform="translate(50,12.25)">Hashtag</text><rect class="er attributeBoxOdd" fill="honeydew" fill-opacity="100%" stroke="gray" x="0" y="24.5" width="50.77499961853027" height="22.5"/><text class="er entityLabel" id="entity-Hashtag-attr-1-type" x="0" y="0" dominant-baseline="middle" text-anchor="left" style="font-family: &quot;trebuchet ms&quot;, verdana, arial, sans-serif;; font-size: 10.2px" transform="translate(5,35.75)">String</text><rect class="er attributeBoxOdd" fill="honeydew" fill-opacity="100%" stroke="gray" x="050.77499961853027" y="24.5" width="49.22500038146973" height="22.5"/><text class="er entityLabel" id="entity-Hashtag-attr-1-name" x="0" y="0" dominant-baseline="middle" text-anchor="left" style="font-family: &quot;trebuchet ms&quot;, verdana, arial, sans-serif;; font-size: 10.2px" transform="translate(55.77499961853027,35.75)">id</text><rect class="er attributeBoxEven" fill="honeydew" fill-opacity="100%" stroke="gray" x="0" y="47" width="50.77499961853027" height="22.5"/><text class="er entityLabel" id="entity-Hashtag-attr-2-type" x="0" y="0" dominant-baseline="middle" text-anchor="left" style="font-family: &quot;trebuchet ms&quot;, verdana, arial, sans-serif;; font-size: 10.2px" transform="translate(5,58.25)">String</text><rect class="er attributeBoxEven" fill="honeydew" fill-opacity="100%" stroke="gray" x="050.77499961853027" y="47" width="49.22500038146973" height="22.5"/><text class="er entityLabel" id="entity-Hashtag-attr-2-name" x="0" y="0" dominant-baseline="middle" text-anchor="left" style="font-family: &quot;trebuchet ms&quot;, verdana, arial, sans-serif;; font-size: 10.2px" transform="translate(55.77499961853027,58.25)">name</text></g><rect class="er relationshipLabelBox" x="431.0948848724365" y="409.7104187011719" width="35.20000076293945" height="14.5" fill="white" fill-opacity="85%"/><text class="er relationshipLabel" id="rel11" x="448.69488525390625" y="416.9604187011719" text-anchor="middle" dominant-baseline="middle" style="font-family: &quot;trebuchet ms&quot;, verdana, arial, sans-serif;; font-size: 12px">avatar</text><rect class="er relationshipLabelBox" x="252.688627243042" y="192.66310119628906" width="45.516666412353516" height="14.5" fill="white" fill-opacity="85%"/><text class="er relationshipLabel" id="rel12" x="275.44696044921875" y="199.91310119628906" text-anchor="middle" dominant-baseline="middle" style="font-family: &quot;trebuchet ms&quot;, verdana, arial, sans-serif;; font-size: 12px">follower</text><rect class="er relationshipLabelBox" x="476.914119720459" y="128.56393432617188" width="50.28333282470703" height="14.5" fill="white" fill-opacity="85%"/><text class="er relationshipLabel" id="rel13" x="502.0557861328125" y="135.81393432617188" text-anchor="middle" dominant-baseline="middle" style="font-family: &quot;trebuchet ms&quot;, verdana, arial, sans-serif;; font-size: 12px">following</text><rect class="er relationshipLabelBox" x="336.0592956542969" y="187.71376037597656" width="36.25" height="14.5" fill="white" fill-opacity="85%"/><text class="er relationshipLabel" id="rel14" x="354.1842956542969" y="194.96376037597656" text-anchor="middle" dominant-baseline="middle" style="font-family: &quot;trebuchet ms&quot;, verdana, arial, sans-serif;; font-size: 12px">author</text><rect class="er relationshipLabelBox" x="300.849573135376" y="278.3790588378906" width="38.29999923706055" height="14.5" fill="white" fill-opacity="85%"/><text class="er relationshipLabel" id="rel15" x="319.99957275390625" y="285.6290588378906" text-anchor="middle" dominant-baseline="middle" style="font-family: &quot;trebuchet ms&quot;, verdana, arial, sans-serif;; font-size: 12px">banner</text><rect class="er relationshipLabelBox" x="409.24755477905273" y="832.481201171875" width="32.53333282470703" height="14.5" fill="white" fill-opacity="85%"/><text class="er relationshipLabel" id="rel16" x="425.51422119140625" y="839.731201171875" text-anchor="middle" dominant-baseline="middle" style="font-family: &quot;trebuchet ms&quot;, verdana, arial, sans-serif;; font-size: 12px">tweet</text><rect class="er relationshipLabelBox" x="483.3278923034668" y="638.457763671875" width="51.150001525878906" height="14.5" fill="white" fill-opacity="85%"/><text class="er relationshipLabel" id="rel17" x="508.90289306640625" y="645.707763671875" text-anchor="middle" dominant-baseline="middle" style="font-family: &quot;trebuchet ms&quot;, verdana, arial, sans-serif;; font-size: 12px">comment</text><rect class="er relationshipLabelBox" x="526.875" y="703.4483642578125" width="36.25" height="14.5" fill="white" fill-opacity="85%"/><text class="er relationshipLabel" id="rel18" x="545" y="710.6983642578125" text-anchor="middle" dominant-baseline="middle" style="font-family: &quot;trebuchet ms&quot;, verdana, arial, sans-serif;; font-size: 12px">author</text><rect class="er relationshipLabelBox" x="683.1245727539062" y="493.6151428222656" width="36.25" height="14.5" fill="white" fill-opacity="85%"/><text class="er relationshipLabel" id="rel19" x="701.2495727539062" y="500.8651428222656" text-anchor="middle" dominant-baseline="middle" style="font-family: &quot;trebuchet ms&quot;, verdana, arial, sans-serif;; font-size: 12px">author</text><rect class="er relationshipLabelBox" x="697.2072715759277" y="827.0186767578125" width="32.53333282470703" height="14.5" fill="white" fill-opacity="85%"/><text class="er relationshipLabel" id="rel20" x="713.4739379882812" y="834.2686767578125" text-anchor="middle" dominant-baseline="middle" style="font-family: &quot;trebuchet ms&quot;, verdana, arial, sans-serif;; font-size: 12px">tweet</text><rect class="er relationshipLabelBox" x="711.1901245117188" y="140.4110107421875" width="36.25" height="14.5" fill="white" fill-opacity="85%"/><text class="er relationshipLabel" id="rel21" x="729.3151245117188" y="147.6610107421875" text-anchor="middle" dominant-baseline="middle" style="font-family: &quot;trebuchet ms&quot;, verdana, arial, sans-serif;; font-size: 12px">author</text><rect class="er relationshipLabelBox" x="842.083309173584" y="471.5418701171875" width="32.53333282470703" height="14.5" fill="white" fill-opacity="85%"/><text class="er relationshipLabel" id="rel22" x="858.3499755859375" y="478.7918701171875" text-anchor="middle" dominant-baseline="middle" style="font-family: &quot;trebuchet ms&quot;, verdana, arial, sans-serif;; font-size: 12px">tweet</text><rect class="er relationshipLabelBox" x="932.774974822998" y="430.7358093261719" width="51.150001525878906" height="14.5" fill="white" fill-opacity="85%"/><text class="er relationshipLabel" id="rel23" x="958.3499755859375" y="437.9858093261719" text-anchor="middle" dominant-baseline="middle" style="font-family: &quot;trebuchet ms&quot;, verdana, arial, sans-serif;; font-size: 12px">comment</text><rect class="er relationshipLabelBox" x="1042.083309173584" y="536.87158203125" width="32.53333282470703" height="14.5" fill="white" fill-opacity="85%"/><text class="er relationshipLabel" id="rel24" x="1058.3499755859375" y="544.12158203125" text-anchor="middle" dominant-baseline="middle" style="font-family: &quot;trebuchet ms&quot;, verdana, arial, sans-serif;; font-size: 12px">tweet</text><rect class="er relationshipLabelBox" x="885.4749755859375" y="196.83522033691406" width="36.25" height="14.5" fill="white" fill-opacity="85%"/><text class="er relationshipLabel" id="rel25" x="903.5999755859375" y="204.08522033691406" text-anchor="middle" dominant-baseline="middle" style="font-family: &quot;trebuchet ms&quot;, verdana, arial, sans-serif;; font-size: 12px">author</text><rect class="er relationshipLabelBox" x="954.6107788085938" y="194.18533325195312" width="36.25" height="14.5" fill="white" fill-opacity="85%"/><text class="er relationshipLabel" id="rel26" x="972.7357788085938" y="201.43533325195312" text-anchor="middle" dominant-baseline="middle" style="font-family: &quot;trebuchet ms&quot;, verdana, arial, sans-serif;; font-size: 12px">author</text><rect class="er relationshipLabelBox" x="1342.083309173584" y="673.2240600585938" width="32.53333282470703" height="14.5" fill="white" fill-opacity="85%"/><text class="er relationshipLabel" id="rel27" x="1358.3499755859375" y="680.4740600585938" text-anchor="middle" dominant-baseline="middle" style="font-family: &quot;trebuchet ms&quot;, verdana, arial, sans-serif;; font-size: 12px">tweet</text></svg>